<svg xmlns="http://www.w3.org/2000/svg" xmlns:xlink="http://www.w3.org/1999/xlink" width="1500" zoomAndPan="magnify" viewBox="0 0 1125 374.999991" height="500" preserveAspectRatio="xMidYMid meet" version="1.0"><defs><clipPath id="a2251d4f8b"><path d="M 2.015625 9.546875 L 358 9.546875 L 358 365.789062 L 2.015625 365.789062 Z M 2.015625 9.546875 " clip-rule="nonzero"/></clipPath><clipPath id="b8245ec4f3"><path d="M 257 9.546875 L 613 9.546875 L 613 365.789062 L 257 365.789062 Z M 257 9.546875 " clip-rule="nonzero"/></clipPath><clipPath id="172ed5b508"><path d="M 512.277344 9.546875 L 868 9.546875 L 868 365.789062 L 512.277344 365.789062 Z M 512.277344 9.546875 " clip-rule="nonzero"/></clipPath><clipPath id="5be2d2efea"><path d="M 767 9.546875 L 1122.984375 9.546875 L 1122.984375 365.789062 L 767 365.789062 Z M 767 9.546875 " clip-rule="nonzero"/></clipPath></defs><g clip-path="url(#a2251d4f8b)"><path fill="#64ddb5" d="M 311.703125 307 C 340.257812 275.53125 357.597656 233.769531 357.597656 187.832031 C 357.597656 142.21875 340.257812 100.457031 312.027344 68.972656 L 333.203125 68.972656 L 333.203125 41.667969 C 307.527344 54.519531 281.542969 41.667969 281.542969 41.667969 C 252.660156 21.429688 217.671875 9.546875 179.800781 9.546875 C 81.605469 9.546875 2.015625 89.214844 2.015625 187.503906 C 2.015625 285.808594 81.605469 365.476562 179.800781 365.476562 C 217.355469 365.476562 252.332031 353.59375 281.214844 333.667969 C 307.527344 320.503906 333.839844 333.667969 333.839844 333.667969 L 332.886719 306.375 L 311.703125 306.375 L 311.703125 307 " fill-opacity="1" fill-rule="nonzero"/></g><g clip-path="url(#b8245ec4f3)"><path fill="#723fa3" d="M 566.832031 307 C 595.390625 275.53125 612.726562 233.769531 612.726562 187.832031 C 612.726562 142.21875 595.390625 100.457031 567.160156 68.972656 L 588.332031 68.972656 L 588.332031 41.667969 C 562.65625 54.519531 536.671875 41.667969 536.671875 41.667969 C 507.789062 21.429688 472.800781 9.546875 434.929688 9.546875 C 336.738281 9.546875 257.144531 89.214844 257.144531 187.503906 C 257.144531 285.808594 336.738281 365.476562 434.929688 365.476562 C 472.488281 365.476562 507.460938 353.59375 536.34375 333.667969 C 562.65625 320.503906 588.972656 333.667969 588.972656 333.667969 L 588.019531 306.375 L 566.832031 306.375 L 566.832031 307 " fill-opacity="1" fill-rule="nonzero"/></g><g clip-path="url(#172ed5b508)"><path fill="#00bf63" d="M 821.960938 307 C 850.519531 275.53125 867.855469 233.769531 867.855469 187.832031 C 867.855469 142.21875 850.519531 100.457031 822.289062 68.972656 L 843.460938 68.972656 L 843.460938 41.667969 C 817.789062 54.519531 791.800781 41.667969 791.800781 41.667969 C 762.917969 21.429688 727.929688 9.546875 690.058594 9.546875 C 591.867188 9.546875 512.277344 89.214844 512.277344 187.503906 C 512.277344 285.808594 591.867188 365.476562 690.058594 365.476562 C 727.617188 365.476562 762.59375 353.59375 791.476562 333.667969 C 817.789062 320.503906 844.101562 333.667969 844.101562 333.667969 L 843.148438 306.375 L 821.960938 306.375 L 821.960938 307 " fill-opacity="1" fill-rule="nonzero"/></g><g clip-path="url(#5be2d2efea)"><path fill="#3997d3" d="M 945.191406 9.871094 C 1043.382812 9.871094 1122.988281 89.539062 1122.988281 187.832031 C 1122.988281 286.121094 1043.382812 365.789062 945.191406 365.789062 C 847.007812 365.789062 767.40625 286.121094 767.40625 187.832031 C 767.40625 89.539062 847.007812 9.871094 945.191406 9.871094 " fill-opacity="1" fill-rule="nonzero"/></g></svg>