<svg xmlns="http://www.w3.org/2000/svg" xmlns:xlink="http://www.w3.org/1999/xlink" width="67" zoomAndPan="magnify" viewBox="0 0 50.25 48" height="64" preserveAspectRatio="xMidYMid meet" version="1.0"><defs><clipPath id="c64161db70"><path d="M 14.800781 15.546875 L 34.640625 15.546875 L 34.640625 21 L 14.800781 21 Z M 14.800781 15.546875 " clip-rule="nonzero"/></clipPath><clipPath id="48abdf21b5"><path d="M 14.800781 26 L 34.640625 26 L 34.640625 31.710938 L 14.800781 31.710938 Z M 14.800781 26 " clip-rule="nonzero"/></clipPath><clipPath id="1bd4c5ba9f"><path d="M 14.800781 20 L 34.640625 20 L 34.640625 27 L 14.800781 27 Z M 14.800781 20 " clip-rule="nonzero"/></clipPath></defs><g clip-path="url(#c64161db70)"><path fill="#00e6b2" d="M 33.976562 17.566406 L 21.984375 17.566406 C 21.910156 17.277344 21.792969 17.007812 21.632812 16.757812 C 21.472656 16.511719 21.277344 16.292969 21.046875 16.109375 C 20.816406 15.929688 20.5625 15.789062 20.285156 15.691406 C 20.007812 15.59375 19.722656 15.546875 19.433594 15.546875 C 19.140625 15.546875 18.855469 15.59375 18.578125 15.691406 C 18.300781 15.789062 18.046875 15.929688 17.816406 16.109375 C 17.585938 16.292969 17.390625 16.511719 17.230469 16.757812 C 17.070312 17.007812 16.953125 17.277344 16.882812 17.566406 L 15.464844 17.566406 C 15.28125 17.566406 15.125 17.632812 14.996094 17.765625 C 14.867188 17.894531 14.804688 18.054688 14.804688 18.238281 C 14.804688 18.425781 14.867188 18.585938 14.996094 18.714844 C 15.125 18.847656 15.28125 18.914062 15.464844 18.914062 L 16.882812 18.914062 C 16.953125 19.203125 17.070312 19.472656 17.230469 19.71875 C 17.390625 19.96875 17.585938 20.1875 17.816406 20.367188 C 18.046875 20.550781 18.300781 20.691406 18.578125 20.789062 C 18.855469 20.886719 19.140625 20.933594 19.433594 20.933594 C 19.722656 20.933594 20.007812 20.886719 20.285156 20.789062 C 20.5625 20.691406 20.816406 20.550781 21.046875 20.367188 C 21.277344 20.1875 21.472656 19.96875 21.632812 19.71875 C 21.792969 19.472656 21.910156 19.203125 21.984375 18.914062 L 33.976562 18.914062 C 34.160156 18.914062 34.316406 18.847656 34.445312 18.714844 C 34.574219 18.585938 34.636719 18.425781 34.636719 18.238281 C 34.636719 18.054688 34.574219 17.894531 34.445312 17.765625 C 34.316406 17.632812 34.160156 17.566406 33.976562 17.566406 Z M 19.433594 19.585938 C 19.257812 19.585938 19.085938 19.554688 18.925781 19.484375 C 18.765625 19.417969 18.621094 19.320312 18.496094 19.191406 C 18.371094 19.066406 18.277344 18.921875 18.210938 18.753906 C 18.144531 18.589844 18.109375 18.417969 18.109375 18.238281 C 18.109375 18.0625 18.144531 17.890625 18.210938 17.722656 C 18.277344 17.558594 18.371094 17.414062 18.496094 17.289062 C 18.621094 17.160156 18.765625 17.0625 18.925781 16.996094 C 19.085938 16.925781 19.257812 16.894531 19.433594 16.894531 C 19.605469 16.894531 19.777344 16.925781 19.9375 16.996094 C 20.101562 17.0625 20.242188 17.160156 20.367188 17.289062 C 20.492188 17.414062 20.585938 17.558594 20.652344 17.722656 C 20.71875 17.890625 20.753906 18.0625 20.753906 18.238281 C 20.753906 18.417969 20.71875 18.589844 20.652344 18.753906 C 20.585938 18.921875 20.492188 19.066406 20.367188 19.191406 C 20.242188 19.320312 20.101562 19.417969 19.9375 19.484375 C 19.777344 19.554688 19.605469 19.585938 19.433594 19.585938 Z M 19.433594 19.585938 " fill-opacity="1" fill-rule="nonzero"/></g><g clip-path="url(#48abdf21b5)"><path fill="#00e6b2" d="M 33.976562 28.34375 L 25.289062 28.34375 C 25.214844 28.054688 25.101562 27.785156 24.941406 27.535156 C 24.78125 27.285156 24.582031 27.070312 24.351562 26.886719 C 24.121094 26.703125 23.867188 26.5625 23.589844 26.46875 C 23.316406 26.371094 23.03125 26.320312 22.738281 26.320312 C 22.445312 26.320312 22.160156 26.371094 21.882812 26.46875 C 21.605469 26.5625 21.351562 26.703125 21.121094 26.886719 C 20.890625 27.070312 20.695312 27.285156 20.535156 27.535156 C 20.375 27.785156 20.257812 28.054688 20.1875 28.34375 L 15.464844 28.34375 C 15.28125 28.34375 15.125 28.40625 14.996094 28.539062 C 14.867188 28.671875 14.804688 28.828125 14.804688 29.015625 C 14.804688 29.203125 14.867188 29.359375 14.996094 29.492188 C 15.125 29.625 15.28125 29.6875 15.464844 29.6875 L 20.1875 29.6875 C 20.257812 29.976562 20.375 30.246094 20.535156 30.496094 C 20.695312 30.746094 20.890625 30.960938 21.121094 31.144531 C 21.351562 31.328125 21.605469 31.46875 21.882812 31.5625 C 22.160156 31.660156 22.445312 31.707031 22.738281 31.707031 C 23.03125 31.707031 23.316406 31.660156 23.589844 31.5625 C 23.867188 31.46875 24.121094 31.328125 24.351562 31.144531 C 24.582031 30.960938 24.78125 30.746094 24.941406 30.496094 C 25.101562 30.246094 25.214844 29.976562 25.289062 29.6875 L 33.976562 29.6875 C 34.160156 29.6875 34.316406 29.625 34.445312 29.492188 C 34.574219 29.359375 34.636719 29.203125 34.636719 29.015625 C 34.636719 28.828125 34.574219 28.671875 34.445312 28.539062 C 34.316406 28.40625 34.160156 28.34375 33.976562 28.34375 Z M 22.738281 30.363281 C 22.5625 30.363281 22.394531 30.328125 22.230469 30.261719 C 22.070312 30.191406 21.925781 30.09375 21.800781 29.96875 C 21.679688 29.839844 21.582031 29.695312 21.515625 29.53125 C 21.449219 29.367188 21.414062 29.195312 21.414062 29.015625 C 21.414062 28.835938 21.449219 28.664062 21.515625 28.5 C 21.582031 28.335938 21.679688 28.1875 21.800781 28.0625 C 21.925781 27.9375 22.070312 27.839844 22.230469 27.769531 C 22.394531 27.703125 22.5625 27.667969 22.738281 27.667969 C 22.914062 27.667969 23.082031 27.703125 23.242188 27.769531 C 23.40625 27.839844 23.546875 27.9375 23.671875 28.0625 C 23.796875 28.1875 23.890625 28.335938 23.960938 28.5 C 24.027344 28.664062 24.058594 28.835938 24.058594 29.015625 C 24.058594 29.195312 24.027344 29.367188 23.960938 29.53125 C 23.890625 29.695312 23.796875 29.839844 23.671875 29.96875 C 23.546875 30.09375 23.40625 30.191406 23.242188 30.261719 C 23.082031 30.328125 22.914062 30.363281 22.738281 30.363281 Z M 22.738281 30.363281 " fill-opacity="1" fill-rule="nonzero"/></g><g clip-path="url(#1bd4c5ba9f)"><path fill="#00e6b2" d="M 33.976562 22.953125 L 33.222656 22.953125 C 33.148438 22.664062 33.035156 22.394531 32.875 22.148438 C 32.714844 21.898438 32.515625 21.683594 32.285156 21.5 C 32.054688 21.316406 31.800781 21.175781 31.523438 21.078125 C 31.25 20.984375 30.964844 20.933594 30.671875 20.933594 C 30.378906 20.933594 30.09375 20.984375 29.816406 21.078125 C 29.539062 21.175781 29.285156 21.316406 29.054688 21.5 C 28.824219 21.683594 28.628906 21.898438 28.46875 22.148438 C 28.308594 22.394531 28.191406 22.664062 28.121094 22.953125 L 15.464844 22.953125 C 15.28125 22.953125 15.125 23.019531 14.996094 23.152344 C 14.867188 23.28125 14.804688 23.441406 14.804688 23.628906 C 14.804688 23.8125 14.867188 23.972656 14.996094 24.105469 C 15.125 24.234375 15.28125 24.300781 15.464844 24.300781 L 28.121094 24.300781 C 28.191406 24.589844 28.308594 24.859375 28.46875 25.109375 C 28.628906 25.359375 28.824219 25.574219 29.054688 25.757812 C 29.285156 25.941406 29.539062 26.078125 29.816406 26.175781 C 30.09375 26.273438 30.378906 26.320312 30.671875 26.320312 C 30.964844 26.320312 31.25 26.273438 31.523438 26.175781 C 31.800781 26.078125 32.054688 25.941406 32.285156 25.757812 C 32.515625 25.574219 32.714844 25.359375 32.875 25.109375 C 33.035156 24.859375 33.148438 24.589844 33.222656 24.300781 L 33.976562 24.300781 C 34.160156 24.300781 34.316406 24.234375 34.445312 24.105469 C 34.574219 23.972656 34.636719 23.8125 34.636719 23.628906 C 34.636719 23.441406 34.574219 23.28125 34.445312 23.152344 C 34.316406 23.019531 34.160156 22.953125 33.976562 22.953125 Z M 30.671875 24.976562 C 30.496094 24.976562 30.328125 24.941406 30.164062 24.871094 C 30.003906 24.804688 29.859375 24.707031 29.734375 24.582031 C 29.613281 24.453125 29.515625 24.308594 29.449219 24.144531 C 29.382812 23.976562 29.347656 23.804688 29.347656 23.628906 C 29.347656 23.449219 29.382812 23.277344 29.449219 23.113281 C 29.515625 22.949219 29.613281 22.800781 29.734375 22.675781 C 29.859375 22.550781 30.003906 22.453125 30.164062 22.382812 C 30.328125 22.316406 30.496094 22.28125 30.671875 22.28125 C 30.847656 22.28125 31.015625 22.316406 31.175781 22.382812 C 31.339844 22.453125 31.480469 22.550781 31.605469 22.675781 C 31.730469 22.800781 31.824219 22.949219 31.894531 23.113281 C 31.960938 23.277344 31.992188 23.449219 31.992188 23.628906 C 31.992188 23.804688 31.960938 23.976562 31.894531 24.144531 C 31.824219 24.308594 31.730469 24.453125 31.605469 24.582031 C 31.480469 24.707031 31.339844 24.804688 31.175781 24.871094 C 31.015625 24.941406 30.847656 24.976562 30.671875 24.976562 Z M 30.671875 24.976562 " fill-opacity="1" fill-rule="nonzero"/></g></svg>