<?xml version="1.0" encoding="utf-8"?>
<svg viewBox="4.475 0 293.556 103.818" xmlns="http://www.w3.org/2000/svg">
  <defs>
    <mask id="81e3faf134">
      <g filter="url(#01720889ae)">
        <rect x="-37.5" width="450" fill="#000000" y="-37.499999" height="449.999989" fill-opacity="0.45"/>
      </g>
    </mask>
    <filter x="0%" y="0%" width="100%" height="100%" id="01720889ae">
      <feColorMatrix values="0 0 0 0 1 0 0 0 0 1 0 0 0 0 1 0 0 0 1 0" color-interpolation-filters="sRGB"/>
    </filter>
    <clipPath id="e4627b4543">
      <rect x="0" width="30" y="0" height="55"/>
    </clipPath>
    <clipPath id="df1fe6320e">
      <path d="M 0.558594 2 L 29.601562 2 L 29.601562 51 L 0.558594 51 Z M 0.558594 2 " clip-rule="nonzero"/>
    </clipPath>
    <mask id="08da0cb2ea">
      <g filter="url(#01720889ae)">
        <rect x="-37.5" width="450" fill="#000000" y="-37.499999" height="449.999989" fill-opacity="0.45"/>
      </g>
    </mask>
    <clipPath id="44f971734c">
      <rect x="0" width="30" y="0" height="56"/>
    </clipPath>
    <clipPath id="8be8862a44">
      <path d="M 0.800781 4 L 29.839844 4 L 29.839844 54 L 0.800781 54 Z M 0.800781 4 " clip-rule="nonzero"/>
    </clipPath>
    <mask id="9a869049e3">
      <g filter="url(#01720889ae)">
        <rect x="-37.5" width="450" fill="#000000" y="-37.499999" height="449.999989" fill-opacity="0.6"/>
      </g>
    </mask>
    <clipPath id="5514cb3070">
      <rect x="0" width="30" y="0" height="52"/>
    </clipPath>
    <clipPath id="c727da4336">
      <path d="M 0.558594 0.558594 L 29.601562 0.558594 L 29.601562 50 L 0.558594 50 Z M 0.558594 0.558594 " clip-rule="nonzero"/>
    </clipPath>
    <mask id="2cb2e24910">
      <g filter="url(#01720889ae)">
        <rect x="-37.5" width="450" fill="#000000" y="-37.499999" height="449.999989" fill-opacity="0.6"/>
      </g>
    </mask>
    <clipPath id="b8f965819c">
      <rect x="0" width="30" y="0" height="51"/>
    </clipPath>
    <clipPath id="630216fe3a">
      <path d="M 0.800781 1 L 29.839844 1 L 29.839844 50.839844 L 0.800781 50.839844 Z M 0.800781 1 " clip-rule="nonzero"/>
    </clipPath>
    <mask id="570a402acf">
      <g filter="url(#01720889ae)">
        <rect x="-37.5" width="450" fill="#000000" y="-37.499999" height="449.999989" fill-opacity="0.8"/>
      </g>
    </mask>
    <clipPath id="748748cfbb">
      <rect x="0" width="59" y="0" height="37"/>
    </clipPath>
    <clipPath id="a305bf8be3">
      <path d="M 0.558594 0.199219 L 58.398438 0.199219 L 58.398438 33 L 0.558594 33 Z M 0.558594 0.199219 " clip-rule="nonzero"/>
    </clipPath>
    <mask id="3db41d2c3f">
      <g filter="url(#01720889ae)">
        <rect x="-37.5" width="450" fill="#000000" y="-37.499999" height="449.999989" fill-opacity="0.8"/>
      </g>
    </mask>
    <clipPath id="9c5c26a795">
      <rect x="0" width="59" y="0" height="38"/>
    </clipPath>
    <clipPath id="53e5d450cb">
      <path d="M 0.761719 4 L 58.839844 4 L 58.839844 37.441406 L 0.761719 37.441406 Z M 0.761719 4 " clip-rule="nonzero"/>
    </clipPath>
    <mask id="bd474fe0c2">
      <g filter="url(#01720889ae)">
        <rect x="-37.5" width="450" fill="#000000" y="-37.499999" height="449.999989" fill-opacity="0.45"/>
      </g>
    </mask>
    <clipPath id="530f6b72ee">
      <rect x="0" width="30" y="0" height="55"/>
    </clipPath>
    <clipPath id="aaac95b561">
      <path d="M 0.558594 2 L 29.601562 2 L 29.601562 52 L 0.558594 52 Z M 0.558594 2 " clip-rule="nonzero"/>
    </clipPath>
    <mask id="6dd51aab9c">
      <g filter="url(#01720889ae)">
        <rect x="-37.5" width="450" fill="#000000" y="-37.499999" height="449.999989" fill-opacity="0.45"/>
      </g>
    </mask>
    <clipPath id="c1076bf5f6">
      <rect x="0" width="30" y="0" height="55"/>
    </clipPath>
    <clipPath id="cbcaf27b99">
      <path d="M 0.800781 3 L 29.839844 3 L 29.839844 53 L 0.800781 53 Z M 0.800781 3 " clip-rule="nonzero"/>
    </clipPath>
    <mask id="f7e528e1be">
      <g filter="url(#01720889ae)">
        <rect x="-37.5" width="450" fill="#000000" y="-37.499999" height="449.999989" fill-opacity="0.6"/>
      </g>
    </mask>
    <clipPath id="b68ed61d78">
      <rect x="0" width="30" y="0" height="52"/>
    </clipPath>
    <clipPath id="d2d30b71db">
      <path d="M 0.558594 1 L 29.601562 1 L 29.601562 50 L 0.558594 50 Z M 0.558594 1 " clip-rule="nonzero"/>
    </clipPath>
    <mask id="d728a1b135">
      <g filter="url(#01720889ae)">
        <rect x="-37.5" width="450" fill="#000000" y="-37.499999" height="449.999989" fill-opacity="0.6"/>
      </g>
    </mask>
    <clipPath id="e275d60510">
      <rect x="0" width="30" y="0" height="52"/>
    </clipPath>
    <clipPath id="5ef180a368">
      <path d="M 0.800781 2 L 29.839844 2 L 29.839844 51 L 0.800781 51 Z M 0.800781 2 " clip-rule="nonzero"/>
    </clipPath>
    <mask id="8e78d28b4d">
      <g filter="url(#01720889ae)">
        <rect x="-37.5" width="450" fill="#000000" y="-37.499999" height="449.999989" fill-opacity="0.8"/>
      </g>
    </mask>
    <clipPath id="cc3ed9f16a">
      <rect x="0" width="59" y="0" height="37"/>
    </clipPath>
    <clipPath id="208aa66b6b">
      <path d="M 0.558594 0.441406 L 58.398438 0.441406 L 58.398438 34 L 0.558594 34 Z M 0.558594 0.441406 " clip-rule="nonzero"/>
    </clipPath>
    <mask id="7c0e44719e">
      <g filter="url(#01720889ae)">
        <rect x="-37.5" width="450" fill="#000000" y="-37.499999" height="449.999989" fill-opacity="0.8"/>
      </g>
    </mask>
    <clipPath id="76d7c0567f">
      <rect x="0" width="59" y="0" height="37"/>
    </clipPath>
    <clipPath id="5edd05c612">
      <path d="M 0.761719 3 L 58.839844 3 L 58.839844 36.679688 L 0.761719 36.679688 Z M 0.761719 3 " clip-rule="nonzero"/>
    </clipPath>
    <mask id="719f488744">
      <g filter="url(#01720889ae)">
        <rect x="-37.5" width="450" fill="#000000" y="-37.499999" height="449.999989" fill-opacity="0.45"/>
      </g>
    </mask>
    <clipPath id="32b3e3a985">
      <rect x="0" width="30" y="0" height="55"/>
    </clipPath>
    <clipPath id="55fc37bae3">
      <path d="M 0.558594 2 L 29.601562 2 L 29.601562 52 L 0.558594 52 Z M 0.558594 2 " clip-rule="nonzero"/>
    </clipPath>
    <mask id="482ab1557a">
      <g filter="url(#01720889ae)">
        <rect x="-37.5" width="450" fill="#000000" y="-37.499999" height="449.999989" fill-opacity="0.45"/>
      </g>
    </mask>
    <clipPath id="e2b5ff0ad7">
      <rect x="0" width="30" y="0" height="55"/>
    </clipPath>
    <clipPath id="5b9d3399a3">
      <path d="M 0.800781 4 L 29.839844 4 L 29.839844 53 L 0.800781 53 Z M 0.800781 4 " clip-rule="nonzero"/>
    </clipPath>
    <mask id="41b4ef795f">
      <g filter="url(#01720889ae)">
        <rect x="-37.5" width="450" fill="#000000" y="-37.499999" height="449.999989" fill-opacity="0.6"/>
      </g>
    </mask>
    <clipPath id="63c77ed911">
      <rect x="0" width="30" y="0" height="51"/>
    </clipPath>
    <clipPath id="de6b4889b9">
      <path d="M 0.558594 0.0390625 L 29.601562 0.0390625 L 29.601562 49 L 0.558594 49 Z M 0.558594 0.0390625 " clip-rule="nonzero"/>
    </clipPath>
    <mask id="25fd566267">
      <g filter="url(#01720889ae)">
        <rect x="-37.5" width="450" fill="#000000" y="-37.499999" height="449.999989" fill-opacity="0.6"/>
      </g>
    </mask>
    <clipPath id="a9f83eec0c">
      <rect x="0" width="30" y="0" height="52"/>
    </clipPath>
    <clipPath id="f371ee441a">
      <path d="M 0.800781 2 L 29.839844 2 L 29.839844 51.320312 L 0.800781 51.320312 Z M 0.800781 2 " clip-rule="nonzero"/>
    </clipPath>
    <mask id="19453be079">
      <g filter="url(#01720889ae)">
        <rect x="-37.5" width="450" fill="#000000" y="-37.499999" height="449.999989" fill-opacity="0.8"/>
      </g>
    </mask>
    <clipPath id="79535ffb37">
      <rect x="0" width="59" y="0" height="37"/>
    </clipPath>
    <clipPath id="657a2373b3">
      <path d="M 0.558594 0.441406 L 58.398438 0.441406 L 58.398438 34 L 0.558594 34 Z M 0.558594 0.441406 " clip-rule="nonzero"/>
    </clipPath>
    <mask id="ab4d1827f5">
      <g filter="url(#01720889ae)">
        <rect x="-37.5" width="450" fill="#000000" y="-37.499999" height="449.999989" fill-opacity="0.8"/>
      </g>
    </mask>
    <clipPath id="a4d2e69c49">
      <rect x="0" width="59" y="0" height="37"/>
    </clipPath>
    <clipPath id="8c4db780d9">
      <path d="M 0.761719 4 L 58.839844 4 L 58.839844 36.679688 L 0.761719 36.679688 Z M 0.761719 4 " clip-rule="nonzero"/>
    </clipPath>
  </defs>
  <g mask="url(#81e3faf134)" transform="matrix(1, 0, 0, 1, -44.749401759347336, -132.01074415461335)">
    <g transform="matrix(1, 0, 0, 1, 58, 175)">
      <g clip-path="url(#e4627b4543)">
        <g clip-path="url(#df1fe6320e)">
          <path fill="#785be3" d="M 0.578125 2.113281 L 29.484375 18.371094 L 29.484375 50.890625 L 0.578125 34.628906 L 0.578125 2.113281 " fill-opacity="1" fill-rule="nonzero"/>
        </g>
      </g>
    </g>
  </g>
  <g mask="url(#08da0cb2ea)" transform="matrix(1, 0, 0, 1, -44.749401759347336, -132.01074415461335)">
    <g transform="matrix(1, 0, 0, 1, 130, 156)">
      <g clip-path="url(#44f971734c)">
        <g clip-path="url(#8be8862a44)">
          <path fill="#785be3" d="M 29.746094 53.476562 L 0.839844 37.214844 L 0.839844 4.699219 L 29.746094 20.957031 L 29.746094 53.476562 " fill-opacity="1" fill-rule="nonzero"/>
        </g>
      </g>
    </g>
  </g>
  <g mask="url(#9a869049e3)" transform="matrix(1, 0, 0, 1, -44.749401759347336, -132.01074415461335)">
    <g transform="matrix(1, 0, 0, 1, 58, 160)">
      <g clip-path="url(#5514cb3070)">
        <g clip-path="url(#c727da4336)">
          <path fill="#785be3" d="M 29.484375 33.378906 L 29.484375 0.859375 L 0.578125 17.121094 L 0.578125 49.636719 Z M 29.484375 33.378906 " fill-opacity="1" fill-rule="nonzero"/>
        </g>
      </g>
    </g>
  </g>
  <g mask="url(#2cb2e24910)" transform="matrix(1, 0, 0, 1, -44.749401759347336, -132.01074415461335)">
    <g transform="matrix(1, 0, 0, 1, 130, 175)">
      <g clip-path="url(#b8f965819c)">
        <g clip-path="url(#630216fe3a)">
          <path fill="#785be3" d="M 0.839844 18.207031 L 0.839844 50.726562 L 29.746094 34.46875 L 29.746094 1.949219 Z M 0.839844 18.207031 " fill-opacity="1" fill-rule="nonzero"/>
        </g>
      </g>
    </g>
  </g>
  <g mask="url(#570a402acf)" transform="matrix(1, 0, 0, 1, -44.749401759347336, -132.01074415461335)">
    <g transform="matrix(1, 0, 0, 1, 58, 193)">
      <g clip-path="url(#748748cfbb)">
        <g clip-path="url(#a305bf8be3)">
          <path fill="#785be3" d="M 58.390625 16.628906 L 29.484375 0.371094 L 0.578125 16.628906 L 29.484375 32.890625 Z M 58.390625 16.628906 " fill-opacity="1" fill-rule="nonzero"/>
        </g>
      </g>
    </g>
  </g>
  <g mask="url(#3db41d2c3f)" transform="matrix(1, 0, 0, 1, -44.749401759347336, -132.01074415461335)">
    <g transform="matrix(1, 0, 0, 1, 101, 156)">
      <g clip-path="url(#9c5c26a795)">
        <g clip-path="url(#53e5d450cb)">
          <path fill="#785be3" d="M 0.9375 20.957031 L 29.839844 37.214844 L 58.746094 20.957031 L 29.839844 4.699219 Z M 0.9375 20.957031 " fill-opacity="1" fill-rule="nonzero"/>
        </g>
      </g>
    </g>
  </g>
  <g mask="url(#bd474fe0c2)" transform="matrix(1, 0, 0, 1, -44.749401759347336, -132.01074415461335)">
    <g transform="matrix(1, 0, 0, 1, 58, 169)">
      <g clip-path="url(#530f6b72ee)">
        <g clip-path="url(#aaac95b561)">
          <path fill="#0186ff" d="M 0.578125 2.347656 L 29.484375 18.609375 L 29.484375 51.125 L 0.578125 34.867188 L 0.578125 2.347656 " fill-opacity="1" fill-rule="nonzero"/>
        </g>
      </g>
    </g>
  </g>
  <g mask="url(#6dd51aab9c)" transform="matrix(1, 0, 0, 1, -44.749401759347336, -132.01074415461335)">
    <g transform="matrix(1, 0, 0, 1, 130, 151)">
      <g clip-path="url(#c1076bf5f6)">
        <g clip-path="url(#cbcaf27b99)">
          <path fill="#0186ff" d="M 29.746094 52.710938 L 0.839844 36.453125 L 0.839844 3.933594 L 29.746094 20.191406 L 29.746094 52.710938 " fill-opacity="1" fill-rule="nonzero"/>
        </g>
      </g>
    </g>
  </g>
  <g mask="url(#f7e528e1be)" transform="matrix(1, 0, 0, 1, -44.749401759347336, -132.01074415461335)">
    <g transform="matrix(1, 0, 0, 1, 58, 154)">
      <g clip-path="url(#b68ed61d78)">
        <g clip-path="url(#d2d30b71db)">
          <path fill="#0186ff" d="M 29.484375 33.613281 L 29.484375 1.097656 L 0.578125 17.355469 L 0.578125 49.875 Z M 29.484375 33.613281 " fill-opacity="1" fill-rule="nonzero"/>
        </g>
      </g>
    </g>
  </g>
  <g mask="url(#d728a1b135)" transform="matrix(1, 0, 0, 1, -44.749401759347336, -132.01074415461335)">
    <g transform="matrix(1, 0, 0, 1, 130, 169)">
      <g clip-path="url(#e275d60510)">
        <g clip-path="url(#5ef180a368)">
          <path fill="#0186ff" d="M 0.839844 18.445312 L 0.839844 50.964844 L 29.746094 34.703125 L 29.746094 2.1875 Z M 0.839844 18.445312 " fill-opacity="1" fill-rule="nonzero"/>
        </g>
      </g>
    </g>
  </g>
  <g mask="url(#8e78d28b4d)" transform="matrix(1, 0, 0, 1, -44.749401759347336, -132.01074415461335)">
    <g transform="matrix(1, 0, 0, 1, 58, 187)">
      <g clip-path="url(#cc3ed9f16a)">
        <g clip-path="url(#208aa66b6b)">
          <path fill="#0186ff" d="M 58.390625 16.867188 L 29.484375 0.609375 L 0.578125 16.867188 L 29.484375 33.125 Z M 58.390625 16.867188 " fill-opacity="1" fill-rule="nonzero"/>
        </g>
      </g>
    </g>
  </g>
  <g mask="url(#7c0e44719e)" transform="matrix(1, 0, 0, 1, -44.749401759347336, -132.01074415461335)">
    <g transform="matrix(1, 0, 0, 1, 101, 151)">
      <g clip-path="url(#76d7c0567f)">
        <g clip-path="url(#5edd05c612)">
          <path fill="#0186ff" d="M 0.9375 20.191406 L 29.839844 36.453125 L 58.746094 20.191406 L 29.839844 3.933594 Z M 0.9375 20.191406 " fill-opacity="1" fill-rule="nonzero"/>
        </g>
      </g>
    </g>
  </g>
  <g mask="url(#719f488744)" transform="matrix(1, 0, 0, 1, -44.749401759347336, -132.01074415461335)">
    <g transform="matrix(1, 0, 0, 1, 58, 163)">
      <g clip-path="url(#32b3e3a985)">
        <g clip-path="url(#55fc37bae3)">
          <path fill="#00bf63" d="M 0.578125 2.453125 L 29.484375 18.710938 L 29.484375 51.230469 L 0.578125 34.972656 L 0.578125 2.453125 " fill-opacity="1" fill-rule="nonzero"/>
        </g>
      </g>
    </g>
  </g>
  <g mask="url(#482ab1557a)" transform="matrix(1, 0, 0, 1, -44.749401759347336, -132.01074415461335)">
    <g transform="matrix(1, 0, 0, 1, 130, 145)">
      <g clip-path="url(#e2b5ff0ad7)">
        <g clip-path="url(#5b9d3399a3)">
          <path fill="#00bf63" d="M 29.746094 52.816406 L 0.839844 36.554688 L 0.839844 4.039062 L 29.746094 20.296875 L 29.746094 52.816406 " fill-opacity="1" fill-rule="nonzero"/>
        </g>
      </g>
    </g>
  </g>
  <g mask="url(#41b4ef795f)" transform="matrix(1, 0, 0, 1, -44.749401759347336, -132.01074415461335)">
    <g transform="matrix(1, 0, 0, 1, 58, 149)">
      <g clip-path="url(#63c77ed911)">
        <g clip-path="url(#de6b4889b9)">
          <path fill="#00bf63" d="M 29.484375 32.71875 L 29.484375 0.199219 L 0.578125 16.460938 L 0.578125 48.976562 Z M 29.484375 32.71875 " fill-opacity="1" fill-rule="nonzero"/>
        </g>
      </g>
    </g>
  </g>
  <g mask="url(#25fd566267)" transform="matrix(1, 0, 0, 1, -44.749401759347336, -132.01074415461335)">
    <g transform="matrix(1, 0, 0, 1, 130, 163)">
      <g clip-path="url(#a9f83eec0c)">
        <g clip-path="url(#f371ee441a)">
          <path fill="#00bf63" d="M 0.839844 18.550781 L 0.839844 51.066406 L 29.746094 34.808594 L 29.746094 2.289062 Z M 0.839844 18.550781 " fill-opacity="1" fill-rule="nonzero"/>
        </g>
      </g>
    </g>
  </g>
  <g mask="url(#19453be079)" transform="matrix(1, 0, 0, 1, -44.749401759347336, -132.01074415461335)">
    <g transform="matrix(1, 0, 0, 1, 58, 181)">
      <g clip-path="url(#79535ffb37)">
        <g clip-path="url(#657a2373b3)">
          <path fill="#00bf63" d="M 58.390625 16.972656 L 29.484375 0.710938 L 0.578125 16.972656 L 29.484375 33.230469 Z M 58.390625 16.972656 " fill-opacity="1" fill-rule="nonzero"/>
        </g>
      </g>
    </g>
  </g>
  <g mask="url(#ab4d1827f5)" transform="matrix(1, 0, 0, 1, -44.749401759347336, -132.01074415461335)">
    <g transform="matrix(1, 0, 0, 1, 101, 145)">
      <g clip-path="url(#a4d2e69c49)">
        <g clip-path="url(#8c4db780d9)">
          <path fill="#00bf63" d="M 0.9375 20.296875 L 29.839844 36.554688 L 58.746094 20.296875 L 29.839844 4.039062 Z M 0.9375 20.296875 " fill-opacity="1" fill-rule="nonzero"/>
        </g>
      </g>
    </g>
  </g>
  <g fill="#000000" fill-opacity="1" transform="matrix(1, 0, 0, 1, -44.749401759347336, -132.01074415461335)">
    <g transform="translate(166.904569, 195.749987)">
      <g>
        <path d="M 6.4375 0 L 11.285156 0 L 15.914062 -19.738281 L 16.046875 -19.738281 L 20.894531 0 L 25.75 0 L 31.316406 -22.25 L 28.042969 -22.25 L 23.253906 -2.425781 L 23.09375 -2.425781 L 18.332031 -22.25 L 13.636719 -22.25 L 9.105469 -2.425781 L 8.941406 -2.425781 L 4.167969 -22.25 L 0.863281 -22.25 Z M 6.4375 0 "/>
      </g>
    </g>
    <g transform="translate(199.087184, 195.749987)">
      <g>
        <path d="M 17.453125 -8.09375 C 17.453125 -13.292969 14.472656 -15.855469 9.574219 -15.855469 C 4.4375 -15.855469 1.1875 -12.855469 1.1875 -7.785156 C 1.1875 -2.6875 4.363281 0.300781 9.644531 0.300781 C 13.6875 0.300781 16.441406 -1.734375 17.410156 -5.164062 L 14.589844 -5.164062 C 13.9375 -3.207031 12.273438 -2.007812 9.609375 -2.007812 C 6.3125 -2.007812 4.226562 -3.765625 4.175781 -7.375 L 17.410156 -7.375 Z M 9.574219 -13.71875 C 12.679688 -13.71875 14.355469 -12.203125 14.429688 -9.074219 L 4.21875 -9.074219 C 4.535156 -12.210938 6.378906 -13.71875 9.574219 -13.71875 Z M 9.574219 -13.71875 "/>
      </g>
    </g>
    <g transform="translate(217.807887, 195.749987)">
      <g>
        <path d="M 11.101562 -15.886719 C 8.335938 -15.886719 6.53125 -14.582031 5.507812 -12.722656 L 5.484375 -22.25 L 2.476562 -22.25 L 2.476562 0 L 5.074219 0 L 5.375 -3.113281 C 6.335938 -1.148438 8.285156 0.300781 11.101562 0.300781 C 15.695312 0.300781 18.421875 -2.839844 18.421875 -7.800781 C 18.421875 -12.714844 15.746094 -15.886719 11.101562 -15.886719 Z M 10.421875 -2.109375 C 7.097656 -2.109375 5.238281 -4.535156 5.238281 -7.800781 C 5.238281 -11.058594 7.097656 -13.5 10.421875 -13.5 C 13.761719 -13.5 15.433594 -11.214844 15.433594 -7.800781 C 15.433594 -4.378906 13.761719 -2.109375 10.421875 -2.109375 Z M 10.421875 -2.109375 "/>
      </g>
    </g>
  </g>
  <g fill="#01b873" fill-opacity="1" transform="matrix(1, 0, 0, 1, -44.749401759347336, -132.01074415461335)">
    <g transform="translate(237.510033, 195.749987)">
      <g>
        <path d="M 9.84375 0.300781 C 14.730469 0.300781 18.28125 -2.351562 18.28125 -6.410156 C 18.28125 -9.601562 16.097656 -11.5 13.503906 -12.179688 C 15.328125 -12.875 16.925781 -14.566406 16.925781 -16.882812 C 16.925781 -20.105469 13.902344 -22.550781 9.769531 -22.550781 C 5.148438 -22.550781 2.585938 -20.121094 2.585938 -15.667969 L 5.699219 -15.667969 C 5.699219 -18.113281 6.539062 -20.148438 9.800781 -20.148438 C 12.261719 -20.148438 14.027344 -18.785156 14.027344 -16.691406 C 14.027344 -14.675781 12.3125 -13.058594 9.96875 -13.058594 L 8.460938 -13.058594 L 8.460938 -10.890625 L 10.203125 -10.890625 C 12.984375 -10.890625 15.152344 -9.242188 15.152344 -6.527344 C 15.152344 -3.859375 13.074219 -2.125 9.9375 -2.125 C 6.175781 -2.125 4.6875 -4.246094 4.6875 -7.625 L 1.574219 -7.625 C 1.574219 -2.503906 4.175781 0.300781 9.84375 0.300781 Z M 9.84375 0.300781 "/>
      </g>
    </g>
  </g>
  <g fill="#000000" fill-opacity="1" transform="matrix(1, 0, 0, 1, -44.749401759347336, -132.01074415461335)">
    <g transform="translate(257.4905, 195.749987)">
      <g>
        <path d="M 21.4375 -22.25 L 0.511719 -22.25 L 0.511719 -19.652344 L 9.398438 -19.652344 L 9.398438 0 L 12.546875 0 L 12.546875 -19.652344 L 21.4375 -19.652344 Z M 21.4375 -22.25 "/>
      </g>
    </g>
    <g transform="translate(279.441183, 195.749987)">
      <g>
        <path d="M 17.351562 -1.96875 C 16.121094 -1.96875 15.761719 -2.953125 15.761719 -4.253906 L 15.761719 -10.445312 C 15.761719 -14.546875 12.488281 -15.828125 8.832031 -15.828125 C 4.828125 -15.828125 1.960938 -14.363281 1.640625 -10.605469 L 4.476562 -10.605469 C 4.460938 -12.816406 6.453125 -13.777344 8.695312 -13.777344 C 10.847656 -13.777344 12.855469 -12.867188 12.855469 -10.808594 L 12.855469 -9.601562 C 11.8125 -9.632812 10.832031 -9.625 9.917969 -9.574219 C 4.535156 -9.28125 1.363281 -7.550781 1.363281 -4.007812 C 1.363281 -0.945312 3.933594 0.316406 6.914062 0.316406 C 9.753906 0.316406 12.019531 -0.921875 13.132812 -3.433594 C 13.324219 -1.011719 14.027344 0.257812 16.40625 0.257812 C 17.019531 0.257812 17.746094 0.167969 18.617188 0 L 18.617188 -2.234375 C 18.113281 -2.050781 17.703125 -1.96875 17.351562 -1.96875 Z M 7.9375 -1.605469 C 5.792969 -1.605469 4.3125 -2.402344 4.3125 -4.234375 C 4.3125 -6.613281 6.496094 -7.757812 10.160156 -7.933594 C 10.984375 -8.019531 11.917969 -8.042969 12.949219 -7.992188 C 12.949219 -4.914062 11.667969 -1.605469 7.9375 -1.605469 Z M 7.9375 -1.605469 "/>
      </g>
    </g>
  </g>
  <g fill="#000000" fill-opacity="1" transform="matrix(1, 0, 0, 1, -44.749401759347336, -132.01074415461335)">
    <g transform="translate(298.323018, 195.749987)">
      <g>
        <path d="M 8.699219 0.292969 C 12.53125 0.292969 15.726562 -1.070312 15.726562 -4.519531 C 15.726562 -8.167969 12.414062 -8.707031 9.433594 -9.058594 C 6.929688 -9.359375 4.460938 -9.5 4.460938 -11.351562 C 4.460938 -13.191406 6.378906 -13.84375 8.296875 -13.84375 C 10.203125 -13.84375 12.152344 -13.089844 12.152344 -11.242188 L 15.21875 -11.226562 C 14.964844 -14.714844 11.683594 -15.855469 8.371094 -15.855469 C 4.695312 -15.855469 1.632812 -14.480469 1.632812 -11.226562 C 1.632812 -7.535156 5.113281 -7.183594 8.121094 -6.863281 C 10.605469 -6.597656 12.707031 -6.335938 12.765625 -4.429688 C 12.839844 -2.460938 10.898438 -1.839844 8.640625 -1.839844 C 6.304688 -1.839844 4.234375 -2.527344 4.300781 -4.679688 L 1.195312 -4.679688 C 1.375 -0.777344 5.183594 0.292969 8.699219 0.292969 Z M 8.699219 0.292969 "/>
      </g>
    </g>
    <g transform="translate(315.271259, 195.749987)">
      <g>
        <path d="M 2.476562 0 L 5.558594 0 L 5.558594 -6.46875 L 8.941406 -9.410156 L 13.636719 0 L 17.078125 0 L 11.167969 -11.285156 L 16.089844 -15.550781 L 12.230469 -15.550781 L 5.558594 -9.609375 L 5.558594 -22.25 L 2.476562 -22.25 Z M 2.476562 0 "/>
      </g>
    </g>
  </g>
</svg>